<svg width="64" height="34" viewBox="0 0 64 34" fill="none" xmlns="http://www.w3.org/2000/svg">
<path d="M12.3677 17.648C12.5757 17.648 12.7357 17.744 12.8477 17.936C12.9757 18.128 13.0397 18.392 13.0397 18.728C13.0397 19.368 12.8877 19.864 12.5837 20.216C11.8957 21.064 11.1437 21.76 10.3277 22.304C9.51172 22.848 8.57572 23.12 7.51972 23.12C4.25572 23.12 2.62372 20.824 2.62372 16.232C2.62372 15.528 2.64772 14.816 2.69572 14.096H1.75972C1.27972 14.096 0.951719 14.008 0.775719 13.832C0.615719 13.656 0.535719 13.376 0.535719 12.992C0.535719 12.096 0.895719 11.648 1.61572 11.648H2.98372C3.25572 9.888 3.67172 8.28 4.23172 6.824C4.79172 5.368 5.46372 4.208 6.24772 3.344C7.04772 2.48 7.90372 2.048 8.81572 2.048C9.48772 2.048 10.0157 2.344 10.3997 2.936C10.7837 3.528 10.9757 4.272 10.9757 5.168C10.9757 7.648 9.93572 9.808 7.85572 11.648H10.5437C10.7997 11.648 10.9837 11.704 11.0957 11.816C11.2077 11.928 11.2637 12.136 11.2637 12.44C11.2637 13.544 10.3597 14.096 8.55172 14.096H5.62372C5.59172 14.896 5.57572 15.52 5.57572 15.968C5.57572 17.632 5.76772 18.8 6.15172 19.472C6.55172 20.144 7.17572 20.48 8.02372 20.48C8.71172 20.48 9.31972 20.272 9.84772 19.856C10.3757 19.44 10.9997 18.816 11.7197 17.984C11.9117 17.76 12.1277 17.648 12.3677 17.648ZM8.16772 4.352C7.92772 4.352 7.65572 4.656 7.35172 5.264C7.06372 5.856 6.78372 6.688 6.51172 7.76C6.25572 8.816 6.03972 9.992 5.86372 11.288C6.80772 10.472 7.51172 9.56 7.97572 8.552C8.45572 7.528 8.69572 6.6 8.69572 5.768C8.69572 4.824 8.51972 4.352 8.16772 4.352ZM12.7896 23.12C12.1816 23.12 11.7496 22.8 11.4936 22.16C11.2536 21.52 11.1336 20.496 11.1336 19.088C11.1336 17.008 11.4296 15.032 12.0216 13.16C12.1656 12.696 12.3976 12.36 12.7176 12.152C13.0536 11.928 13.5176 11.816 14.1096 11.816C14.4296 11.816 14.6536 11.856 14.7816 11.936C14.9096 12.016 14.9736 12.168 14.9736 12.392C14.9736 12.648 14.8536 13.224 14.6136 14.12C14.4536 14.76 14.3256 15.32 14.2296 15.8C14.1336 16.28 14.0536 16.872 13.9896 17.576C14.5176 16.2 15.1096 15.08 15.7656 14.216C16.4216 13.352 17.0616 12.736 17.6856 12.368C18.3256 12 18.9096 11.816 19.4376 11.816C20.4776 11.816 20.9976 12.336 20.9976 13.376C20.9976 13.584 20.9256 14.088 20.7816 14.888C20.6536 15.528 20.5896 15.928 20.5896 16.088C20.5896 16.648 20.7896 16.928 21.1896 16.928C21.6376 16.928 22.2136 16.576 22.9176 15.872C23.1256 15.664 23.3416 15.56 23.5656 15.56C23.7736 15.56 23.9336 15.656 24.0456 15.848C24.1736 16.024 24.2376 16.264 24.2376 16.568C24.2376 17.16 24.0776 17.624 23.7576 17.96C23.3096 18.424 22.7816 18.824 22.1736 19.16C21.5816 19.48 20.9496 19.64 20.2776 19.64C19.4296 19.64 18.7816 19.424 18.3336 18.992C17.9016 18.56 17.6856 17.976 17.6856 17.24C17.6856 17 17.7096 16.76 17.7576 16.52C17.7896 16.2 17.8056 15.984 17.8056 15.872C17.8056 15.616 17.7176 15.488 17.5416 15.488C17.3016 15.488 16.9816 15.76 16.5816 16.304C16.1976 16.832 15.8136 17.536 15.4296 18.416C15.0456 19.296 14.7336 20.224 14.4936 21.2C14.3176 21.952 14.1096 22.464 13.8696 22.736C13.6456 22.992 13.2856 23.12 12.7896 23.12ZM24.4555 23.12C23.7355 23.12 23.1435 22.792 22.6795 22.136C22.2315 21.464 22.0075 20.632 22.0075 19.64C22.0075 18.44 22.0875 17.344 22.2475 16.352C22.4075 15.344 22.6715 14.28 23.0395 13.16C23.1995 12.68 23.4235 12.336 23.7115 12.128C23.9995 11.92 24.4555 11.816 25.0795 11.816C25.4315 11.816 25.6715 11.872 25.7995 11.984C25.9435 12.096 26.0155 12.264 26.0155 12.488C26.0155 12.616 25.9275 13.048 25.7515 13.784C25.5915 14.376 25.4635 14.912 25.3675 15.392C25.0475 17.072 24.8875 18.192 24.8875 18.752C24.8875 19.088 24.9275 19.328 25.0075 19.472C25.0875 19.6 25.2155 19.664 25.3915 19.664C25.6315 19.664 25.9275 19.424 26.2795 18.944C26.6475 18.464 27.0315 17.736 27.4315 16.76C27.8475 15.784 28.2475 14.584 28.6315 13.16C28.7595 12.68 28.9515 12.336 29.2075 12.128C29.4795 11.92 29.8795 11.816 30.4075 11.816C30.7755 11.816 31.0315 11.864 31.1755 11.96C31.3195 12.04 31.3915 12.2 31.3915 12.44C31.3915 12.84 31.1915 13.936 30.7915 15.728C30.3435 17.776 30.1195 19.04 30.1195 19.52C30.1195 19.824 30.1835 20.064 30.3115 20.24C30.4395 20.4 30.6075 20.48 30.8155 20.48C31.1355 20.48 31.5115 20.288 31.9435 19.904C32.3915 19.504 32.9835 18.864 33.7195 17.984C33.9115 17.76 34.1275 17.648 34.3675 17.648C34.5755 17.648 34.7355 17.744 34.8475 17.936C34.9755 18.128 35.0395 18.392 35.0395 18.728C35.0395 19.368 34.8875 19.864 34.5835 20.216C33.8955 21.064 33.1515 21.76 32.3515 22.304C31.5675 22.848 30.6715 23.12 29.6635 23.12C28.8955 23.12 28.3275 22.824 27.9595 22.232C27.6075 21.64 27.4315 20.808 27.4315 19.736C27.1595 20.824 26.7515 21.664 26.2075 22.256C25.6635 22.832 25.0795 23.12 24.4555 23.12ZM43.7974 17.648C44.0054 17.648 44.1654 17.744 44.2774 17.936C44.4054 18.128 44.4694 18.392 44.4694 18.728C44.4694 19.368 44.3174 19.864 44.0134 20.216C43.4214 20.936 42.5814 21.6 41.4934 22.208C40.4214 22.816 39.2694 23.12 38.0374 23.12C36.3574 23.12 35.0534 22.664 34.1254 21.752C33.1974 20.84 32.7334 19.592 32.7334 18.008C32.7334 16.904 32.9654 15.88 33.4294 14.936C33.8934 13.976 34.5334 13.216 35.3494 12.656C36.1814 12.096 37.1174 11.816 38.1574 11.816C39.0854 11.816 39.8294 12.096 40.3894 12.656C40.9494 13.2 41.2294 13.944 41.2294 14.888C41.2294 15.992 40.8294 16.944 40.0294 17.744C39.2454 18.528 37.9094 19.152 36.0214 19.616C36.4214 20.352 37.1814 20.72 38.3014 20.72C39.0214 20.72 39.8374 20.472 40.7494 19.976C41.6774 19.464 42.4774 18.8 43.1494 17.984C43.3414 17.76 43.5574 17.648 43.7974 17.648ZM37.7494 14.168C37.1574 14.168 36.6534 14.512 36.2374 15.2C35.8374 15.888 35.6374 16.72 35.6374 17.696V17.744C36.5814 17.52 37.3254 17.184 37.8694 16.736C38.4134 16.288 38.6854 15.768 38.6854 15.176C38.6854 14.872 38.5974 14.632 38.4214 14.456C38.2614 14.264 38.0374 14.168 37.7494 14.168ZM55.2833 15.632C55.4913 15.632 55.6513 15.736 55.7633 15.944C55.8753 16.152 55.9313 16.416 55.9313 16.736C55.9313 17.136 55.8753 17.448 55.7633 17.672C55.6513 17.88 55.4753 18.024 55.2353 18.104C54.2753 18.44 53.2193 18.632 52.0673 18.68C51.7473 20.008 51.1393 21.08 50.2433 21.896C49.3633 22.712 48.3873 23.12 47.3153 23.12C45.6993 23.12 44.5233 22.504 43.7873 21.272C43.0513 20.04 42.6833 18.256 42.6833 15.92C42.6833 13.856 42.9393 11.616 43.4513 9.2C43.9633 6.768 44.7073 4.704 45.6833 3.008C46.6753 1.296 47.8513 0.439999 49.2113 0.439999C49.9473 0.439999 50.5393 0.759999 50.9873 1.4C51.4353 2.024 51.6593 2.84 51.6593 3.848C51.6593 5.16 51.4113 6.464 50.9153 7.76C50.4193 9.056 49.5953 10.416 48.4433 11.84C49.5153 11.92 50.3873 12.368 51.0593 13.184C51.7313 13.984 52.1313 14.976 52.2593 16.16C53.0113 16.112 53.9073 15.952 54.9473 15.68C55.0433 15.648 55.1553 15.632 55.2833 15.632ZM48.6593 2.816C48.3393 2.816 47.9873 3.296 47.6033 4.256C47.2353 5.2 46.8913 6.488 46.5713 8.12C46.2513 9.752 46.0113 11.536 45.8513 13.472C46.9073 11.536 47.7473 9.832 48.3713 8.36C49.0113 6.872 49.3313 5.552 49.3313 4.4C49.3313 3.888 49.2673 3.496 49.1393 3.224C49.0273 2.952 48.8673 2.816 48.6593 2.816ZM47.4113 20.576C47.9073 20.576 48.3473 20.368 48.7313 19.952C49.1153 19.536 49.3713 18.936 49.4993 18.152C49.0033 17.816 48.6193 17.376 48.3473 16.832C48.0913 16.288 47.9633 15.712 47.9633 15.104C47.9633 14.88 47.9953 14.576 48.0593 14.192H47.9873C47.3313 14.192 46.7793 14.52 46.3313 15.176C45.8993 15.816 45.6833 16.68 45.6833 17.768C45.6833 18.68 45.8513 19.376 46.1873 19.856C46.5393 20.336 46.9473 20.576 47.4113 20.576ZM61.995 12.608C62.395 12.608 62.675 12.672 62.835 12.8C63.011 12.912 63.099 13.144 63.099 13.496C63.099 13.688 63.091 13.84 63.075 13.952C63.011 14.448 62.811 15.728 62.475 17.792C62.235 19.184 62.083 20.104 62.019 20.552C61.411 24.68 60.587 27.936 59.547 30.32C58.523 32.72 57.147 33.92 55.419 33.92C54.603 33.92 53.939 33.664 53.427 33.152C52.915 32.656 52.659 32 52.659 31.184C52.659 30.048 53.107 28.824 54.003 27.512C54.899 26.216 56.579 24.616 59.043 22.712L59.187 21.776C58.915 22.208 58.555 22.544 58.107 22.784C57.675 23.008 57.243 23.12 56.811 23.12C55.819 23.12 55.027 22.76 54.435 22.04C53.843 21.32 53.547 20.376 53.547 19.208C53.547 17.928 53.843 16.72 54.435 15.584C55.027 14.432 55.811 13.512 56.787 12.824C57.779 12.12 58.827 11.768 59.931 11.768C60.283 11.768 60.515 11.84 60.627 11.984C60.755 12.112 60.859 12.352 60.939 12.704C61.243 12.64 61.595 12.608 61.995 12.608ZM57.675 20.696C58.043 20.696 58.395 20.472 58.731 20.024C59.067 19.576 59.307 18.936 59.451 18.104L60.219 14C59.563 14.016 58.955 14.272 58.395 14.768C57.835 15.248 57.387 15.888 57.051 16.688C56.715 17.488 56.547 18.336 56.547 19.232C56.547 19.728 56.643 20.096 56.835 20.336C57.043 20.576 57.323 20.696 57.675 20.696ZM55.683 31.592C56.083 31.592 56.531 31.112 57.027 30.152C57.539 29.192 58.027 27.664 58.491 25.568C57.259 26.624 56.371 27.576 55.827 28.424C55.283 29.272 55.011 30.016 55.011 30.656C55.011 30.928 55.059 31.152 55.155 31.328C55.267 31.504 55.443 31.592 55.683 31.592Z" fill="#646464"/>
</svg>
